<?xml version="1.0" encoding="UTF-8" standalone="no"?> <!-- Created with Vectornator for iOS (http://vectornator.io/) --><!DOCTYPE svg PUBLIC "-//W3C//DTD SVG 1.1//EN" "http://www.w3.org/Graphics/SVG/1.1/DTD/svg11.dtd">
<svg height="100%" style="fill-rule:nonzero;clip-rule:evenodd;stroke-linecap:round;stroke-linejoin:round;" xmlns:xlink="http://www.w3.org/1999/xlink" xmlns="http://www.w3.org/2000/svg" xml:space="preserve" width="100%" xmlns:vectornator="http://vectornator.io" version="1.1" viewBox="0 0 1024 1024">
<metadata>
<vectornator:setting key="DimensionsVisible" value="1"/>
<vectornator:setting key="PencilOnly" value="0"/>
<vectornator:setting key="SnapToPoints" value="0"/>
<vectornator:setting key="OutlineMode" value="0"/>
<vectornator:setting key="CMYKEnabledKey" value="0"/>
<vectornator:setting key="RulersVisible" value="1"/>
<vectornator:setting key="SnapToEdges" value="0"/>
<vectornator:setting key="GuidesVisible" value="1"/>
<vectornator:setting key="DisplayWhiteBackground" value="0"/>
<vectornator:setting key="doHistoryDisabled" value="0"/>
<vectornator:setting key="SnapToGuides" value="1"/>
<vectornator:setting key="TimeLapseWatermarkDisabled" value="0"/>
<vectornator:setting key="Units" value="Pixels"/>
<vectornator:setting key="DynamicGuides" value="0"/>
<vectornator:setting key="IsolateActiveLayer" value="0"/>
<vectornator:setting key="SnapToGrid" value="0"/>
</metadata>
<defs/>
<g id="Layer 2" vectornator:layerName="Layer 2" visibility="hidden">
<path d="M507.344+165.25C466.771+165.25+430.498+183.346+405.938+211.844C382.308+190.921+351.325+178.125+317.281+178.125C243.313+178.125+183.344+238.094+183.344+312.062C183.344+313.013+183.48+313.93+183.5+314.875C129.099+331.903+89.625+382.672+89.625+442.688C89.625+501.071+127.041+550.604+179.156+568.938C181.321+570.197+184.279+571.535+187.969+571.688C206.788+580.221+241.813+601.596+241.812+643.219C241.812+700.038+241.812+785.344+241.812+785.344L343.438+786.125L343.438+642.75C343.437+642.75+345.304+584.675+400.875+572.188C410.336+570.061+550.57+566.915+661.562+565.219C716.106+564.385+788.282+561.22+788.719+560.594C828.223+537.303+854.813+494.459+854.812+445.281C854.812+394.574+826.618+350.458+785.062+327.719C778.72+319.595+785.582+281.75+731.594+249.719C679.412+218.759+640.58+245.185+630.906+247.406C610.663+199.138+562.963+165.25+507.344+165.25ZM501.594+249.719C541.217+249.719+575.172+271+589.594+301.281C596.485+299.888+624.169+283.296+661.344+302.719C699.805+322.814+694.919+346.56+699.438+351.656C729.041+365.922+749.125+393.595+749.125+425.406C749.125+456.258+730.174+483.139+702.031+497.75C701.72+498.143+650.294+500.133+611.438+500.656C532.366+501.72+432.6+504.998+425.719+505.031C285.198+505.706+269.324+503.759+267.781+502.969C230.654+491.467+204+460.408+204+423.781C204+386.131+232.119+354.276+270.875+343.594C270.861+343.001+270.75+342.44+270.75+341.844C270.75+295.44+313.492+257.812+366.188+257.812C390.44+257.813+412.51+265.843+429.344+278.969C446.841+261.091+472.69+249.719+501.594+249.719Z" opacity="1" fill="#5fcfd4"/>
<g opacity="1">
<path d="M542.7+488.49C542.7+471.106+557.522+457.013+575.806+457.013C594.089+457.013+608.911+471.106+608.911+488.49C608.911+505.875+594.089+519.968+575.806+519.968C557.522+519.968+542.7+505.875+542.7+488.49Z" opacity="1" fill="#1b5659"/>
<path d="M666.439+488.49C666.439+471.106+681.261+457.013+699.545+457.013C717.829+457.013+732.651+471.106+732.651+488.49C732.651+505.875+717.829+519.968+699.545+519.968C681.261+519.968+666.439+505.875+666.439+488.49Z" opacity="1" fill="#1b5659"/>
</g>
<g opacity="1">
<path d="M410.714+782.313L488.425+782.313C497.828+782.313+503.945+776.989+503.945+768.153C503.945+759.317+497.714+753.993+488.425+753.993L427.82+753.993L427.82+712.758L485.48+712.758C494.089+712.758+499.754+707.774+499.754+699.618C499.754+691.462+493.976+686.477+485.48+686.477L427.82+686.477L427.82+647.169L488.425+647.169C497.714+647.169+503.945+641.844+503.945+633.008C503.945+624.172+497.828+618.848+488.425+618.848L410.714+618.848C399.953+618.848+393.609+625.419+393.609+636.633L393.609+764.415C393.609+775.743+399.953+782.313+410.714+782.313Z" opacity="1" fill="#1b5659"/>
<path d="M556.733+784.465C567.495+784.465+573.839+777.895+573.839+766.68L573.839+732.356L590.151+715.251L638.862+775.176C644.187+781.973+648.944+784.579+655.968+784.579C665.37+784.579+672.507+777.329+672.507+768.04C672.507+763.395+670.241+758.524+665.144+752.18L616.093+692.594L661.179+645.356C665.483+640.825+667.183+637.087+667.183+632.329C667.183+623.493+660.159+616.583+651.097+616.583C645.433+616.583+641.128+618.735+636.37+623.946L574.858+691.122L573.839+691.122L573.839+634.481C573.839+623.153+567.495+616.583+556.733+616.583C545.972+616.583+539.628+623.153+539.628+634.481L539.628+766.68C539.628+777.895+545.972+784.465+556.733+784.465Z" opacity="1" fill="#1b5659"/>
<path d="M764.604+785.032C805.385+785.032+830.421+764.868+830.421+732.922C830.421+708.114+815.467+694.18+780.803+687.27L763.585+683.758C744.213+679.907+736.397+673.676+736.397+663.594C736.397+651.587+747.612+643.657+764.491+643.657C778.538+643.657+789.073+648.755+794.51+661.102C798.362+668.126+803.12+671.184+810.823+671.184C819.546+671.184+825.436+665.633+825.436+657.477C825.436+654.532+824.983+652.153+824.19+649.887C816.94+628.59+794.397+616.016+764.491+616.016C728.128+616.016+702.073+635.84+702.073+665.747C702.073+690.102+718.046+705.735+750.671+712.192L768.003+715.59C788.506+719.782+796.21+725.899+796.21+736.661C796.21+748.669+783.749+757.505+765.397+757.505C749.764+757.505+736.963+751.84+731.639+739.38C727.561+732.13+722.917+729.411+715.893+729.411C707.057+729.411+700.827+735.415+700.827+744.477C700.827+747.536+701.506+750.708+702.639+753.653C709.21+771.551+730.846+785.032+764.604+785.032Z" opacity="1" fill="#1b5659"/>
</g>
</g>
<g id="Layer 2 copy" vectornator:layerName="Layer 2 copy">
<path d="M547.125+174.988C506.552+174.988+470.28+193.084+445.719+221.582C422.089+200.659+391.106+187.863+357.062+187.863C283.094+187.863+223.125+247.832+223.125+321.8C223.125+322.751+223.262+323.668+223.281+324.613C168.88+341.641+129.406+392.41+129.406+452.425C129.406+510.809+166.822+560.342+218.938+578.675C221.102+579.935+224.061+581.273+227.75+581.425C246.569+589.959+281.594+611.334+281.594+652.957C281.594+709.776+281.594+795.082+281.594+795.082L383.219+795.863L383.219+652.488C383.219+652.488+385.086+594.413+440.656+581.925C450.118+579.799+590.351+576.653+701.344+574.957C755.887+574.123+828.063+570.958+828.5+570.332C868.005+547.041+894.594+504.197+894.594+455.019C894.594+404.312+866.399+360.196+824.844+337.457C818.501+329.333+825.364+291.488+771.375+259.457C719.193+228.497+680.361+254.923+670.688+257.144C650.444+208.876+602.744+174.988+547.125+174.988ZM541.375+259.457C580.998+259.457+614.954+280.738+629.375+311.019C636.267+309.626+663.951+293.034+701.125+312.457C739.587+332.552+734.7+356.298+739.219+361.394C768.823+375.66+788.906+403.333+788.906+435.144C788.906+465.996+769.956+492.877+741.812+507.488C741.501+507.881+690.076+509.871+651.219+510.394C572.147+511.458+472.382+514.736+465.5+514.769C324.979+515.444+309.105+513.497+307.562+512.707C270.435+501.205+243.781+470.146+243.781+433.519C243.781+395.869+271.9+364.014+310.656+353.332C310.642+352.739+310.531+352.178+310.531+351.582C310.531+305.178+353.273+267.55+405.969+267.55C430.221+267.55+452.291+275.581+469.125+288.707C486.622+270.829+512.471+259.457+541.375+259.457Z" opacity="1" fill="#D2322D"/>
<g opacity="0">
<path d="M582.481+490.251C582.481+468.46+597.303+450.796+615.587+450.796C633.871+450.796+648.693+468.46+648.693+490.251C648.693+512.041+633.871+529.706+615.587+529.706C597.303+529.706+582.481+512.041+582.481+490.251Z" opacity="1" fill="#D2322D"/>
<path d="M706.22+490.251C706.22+468.46+721.042+450.796+739.326+450.796C757.61+450.796+772.432+468.46+772.432+490.251C772.432+512.041+757.61+529.706+739.326+529.706C721.042+529.706+706.22+512.041+706.22+490.251Z" opacity="1" fill="#D2322D"/>
</g>
<g opacity="1">
<path d="M501.442+794.657C524.891+794.657+543.696+785.821+551.739+770.867C553.212+768.149+554.005+765.43+554.005+762.825C554.005+755.235+548.227+750.703+541.091+750.703C536.786+750.703+533.841+751.95+530.329+755.575C521.38+766.11+513.45+770.188+501.329+770.188C484.563+770.188+473.688+758.407+473.688+740.395L473.688+738.922L543.016+738.922C552.192+738.922+557.403+733.711+557.403+724.535C557.403+691.571+534.294+668.008+499.856+668.008C463.946+668.008+441.177+692.817+441.177+731.899C441.177+771.207+463.493+794.657+501.442+794.657ZM474.028+718.645C475.161+703.125+485.696+692.477+500.196+692.477C514.696+692.477+524.891+702.785+525.571+718.645L474.028+718.645Z" opacity="1" fill="#D2322D"/>
<path d="M604.754+794.43C614.496+794.43+621.293+788.539+621.293+777.211L621.293+752.629L631.828+742.887L662.981+784.121C668.192+791.938+672.157+794.43+679.18+794.43C688.469+794.43+694.926+788.313+694.926+779.477C694.926+775.172+693.907+772.227+690.282+767.356L656.41+724.196L687.336+694.969C692.094+690.551+693.567+687.492+693.567+682.508C693.567+674.352+687.336+668.121+678.84+668.121C673.856+668.121+670.118+670.047+665.7+674.692L621.746+718.758L621.293+718.758L621.293+643.426C621.293+632.098+614.496+626.094+604.754+626.094C595.125+626.094+588.215+632.098+588.215+643.426L588.215+777.211C588.215+788.539+595.125+794.43+604.754+794.43Z" opacity="1" fill="#D2322D"/>
<path d="M772.523+794.657C804.582+794.657+826.219+779.024+826.219+754.895C826.219+736.77+815.57+727.254+789.742+721.817L769.691+717.512C757.57+714.907+752.812+710.715+752.812+704.371C752.812+696.555+760.629+691.231+771.844+691.231C783.738+691.231+790.308+696.895+796.086+704.258C799.031+707.77+803.789+709.356+808.094+709.356C816.59+709.356+820.781+704.711+820.781+698.028C820.781+696.442+820.441+694.856+819.988+693.157C816.023+679.45+797.558+668.008+772.41+668.008C740.918+668.008+720.867+682.961+720.867+706.184C720.867+724.196+732.875+736.317+756.664+741.414L777.055+745.719C788.949+748.325+793.14+751.836+793.14+758.407C793.14+766.45+785.324+771.434+773.316+771.434C760.742+771.434+753.265+767.582+746.808+759.086C742.277+753.989+737.746+751.61+732.422+751.61C724.719+751.61+719.055+756.707+719.055+764.297C719.055+766.11+719.508+768.262+720.301+770.414C726.078+784.688+744.656+794.657+772.523+794.657Z" opacity="1" fill="#D2322D"/>
</g>
</g>
<g id="Layer 2 copy copy" vectornator:layerName="Layer 2 copy copy" visibility="hidden">
<path d="M-33.7188-29.6875C-34.0481-29.6875-34.3125-29.4231-34.3125-29.0938L-34.3125+1063.47C-34.3125+1063.8-34.0481+1064.06-33.7188+1064.06L1073.94+1064.06C1074.27+1064.06+1074.53+1063.8+1074.53+1063.47L1074.53-29.0938C1074.53-29.4231+1074.27-29.6875+1073.94-29.6875L-33.7188-29.6875ZM547.125+201.562C602.744+201.562+650.444+235.451+670.688+283.719C680.361+281.498+719.193+255.041+771.375+286C825.364+318.031+818.501+355.907+824.844+364.031C866.399+386.771+894.594+430.886+894.594+481.594C894.594+530.772+868.005+573.616+828.5+596.906C828.063+597.533+755.887+600.698+701.344+601.531C590.351+603.228+450.118+606.374+440.656+608.5C385.086+620.988+383.219+679.063+383.219+679.062L383.219+822.438L281.594+821.656C281.594+821.656+281.594+736.351+281.594+679.531C281.594+637.908+246.569+616.533+227.75+608C224.061+607.848+221.102+606.51+218.938+605.25C166.822+586.916+129.406+537.384+129.406+479C129.406+418.985+168.88+368.216+223.281+351.188C223.262+350.242+223.125+349.325+223.125+348.375C223.125+274.407+283.094+214.438+357.063+214.438C391.106+214.438+422.089+227.234+445.719+248.156C470.28+219.659+506.552+201.562+547.125+201.562ZM595.688+632.75C601.719+632.75+605.906+635.312+605.906+641.344L605.906+744.344L662.531+687.969C664.619+685.881+667.149+684.938+669.469+684.938C672.485+684.938+675.269+686.117+677.125+688.438C679.213+690.757+680.625+693.542+680.625+696.094C680.625+698.414+679.682+700.506+677.594+702.594L638.375+739.25L684.562+800.719C685.722+802.343+686.188+803.957+686.188+805.812C686.188+809.293+683.86+812.769+680.844+814.625C678.988+815.785+676.914+816.25+674.594+816.25C671.578+816.25+668.544+815.114+666.688+812.562L623.531+752.219L605.906+769.156L605.906+806.969C605.906+813.233+601.733+816.25+595.469+816.25C588.973+816.25+585.031+813.233+585.031+806.969L585.031+641.781C585.031+635.749+589.192+632.75+595.688+632.75ZM753.469+682.844C779.221+682.844+795.669+693.752+801.469+710.688C801.701+711.615+801.938+712.541+801.938+713.469C801.937+717.877+797.988+720.903+793.812+722.062C792.653+722.295+791.285+722.531+790.125+722.531C785.949+722.531+781.754+720.689+780.594+716.281C777.578+705.841+767.38+700.5+754.156+700.5C735.364+700.5+726.562+708.162+726.562+717.906C726.563+728.578+730.95+733.199+750.438+737.375L764.812+740.406C794.973+746.67+807.062+755.484+807.062+779.844C807.062+802.116+788.042+818.594+755.562+818.594C725.866+818.594+708.438+806.742+702.406+786.094C702.174+784.934+701.969+784.022+701.969+783.094C701.969+778.454+705.905+775.209+710.312+774.281C711.472+774.049+712.634+773.812+713.562+773.812C717.971+773.812+722.139+775.655+723.531+780.062C727.707+793.519+737.234+800.25+755.562+800.25C774.123+800.25+786.188+792.144+786.188+780.312C786.187+768.944+780.143+762.676+759.031+758.5L745.812+755.938C717.276+750.37+705.438+740.384+705.438+718.344C705.438+697.232+723.541+682.844+753.469+682.844ZM504.281+683.094C538.153+683.094+557.18+709.545+559.5+739.938C559.5+740.634+559.5+741.085+559.5+741.781C559.5+750.133+555.098+754.562+547.906+754.562L466.25+754.562C466.714+783.099+480.85+800.938+505.906+800.938C522.61+800.937+531.901+792.608+537.469+780.312C539.557+776.136+542.565+774.5+545.812+774.5C547.436+774.5+549.063+774.974+550.688+775.438C554.632+776.597+557.875+779.387+557.875+783.562C557.875+784.954+557.647+786.327+556.719+787.719C549.295+803.031+535.848+818.344+505.688+818.344C467.639+818.344+445.594+791.449+445.594+751.312C445.594+711.177+466.465+683.094+504.281+683.094ZM504.281+700.031C482.009+700.031+469.953+714.889+466.938+737.625L534.906+737.625C537.458+737.625+538.406+736.682+538.406+734.594C538.406+734.362+538.406+733.901+538.406+733.438C535.622+716.965+525.625+700.031+504.281+700.031Z" opacity="1" fill="#dd5f5c"/>
<path d="M541.368+286.032C512.464+286.032+486.623+297.384+469.126+315.262C452.292+302.137+430.22+294.109+405.967+294.109C353.272+294.109+310.549+331.73+310.549+378.134C310.549+378.73+310.647+379.306+310.661+379.899C271.905+390.581+243.784+422.431+243.784+460.082C243.784+496.709+270.439+527.783+307.566+539.284C309.109+540.075+324.999+541.998+465.519+541.323C472.401+541.29+572.162+538.016+651.234+536.951C690.091+536.428+741.509+534.443+741.821+534.05C769.964+519.439+788.906+492.561+788.906+461.709C788.906+429.898+768.82+402.222+739.216+387.956C734.697+382.86+739.591+359.104+701.13+339.009C663.955+319.587+636.286+336.179+629.394+337.572C614.973+307.291+580.992+286.032+541.368+286.032Z" opacity="1" fill="#dd5f5c"/>
</g>
<g id="Layer 2 copy copy copy" vectornator:layerName="Layer 2 copy copy copy" visibility="hidden">
<path d="M-33.7248-29.6927L1073.93-29.6927C1074.26-29.6927+1074.53-29.4257+1074.53-29.0963L1074.53+1063.48C1074.53+1063.81+1074.26+1064.08+1073.93+1064.08L-33.7248+1064.08C-34.0542+1064.08-34.3213+1063.81-34.3213+1063.48L-34.3213-29.0963C-34.3213-29.4257-34.0542-29.6927-33.7248-29.6927Z" opacity="1" fill="#dd5f5c"/>
<g opacity="1">
<path d="M547.125+201.562C506.552+201.562+470.28+219.659+445.719+248.156C422.089+227.234+391.106+214.438+357.062+214.438C283.094+214.438+223.125+274.407+223.125+348.375C223.125+349.325+223.262+350.242+223.281+351.188C168.88+368.216+129.406+418.985+129.406+479C129.406+537.384+166.822+586.916+218.938+605.25C221.102+606.51+224.061+607.848+227.75+608C246.569+616.533+281.594+637.908+281.594+679.531C281.594+736.351+281.594+821.656+281.594+821.656L383.219+822.438L383.219+679.062C383.219+679.063+385.085+620.988+440.656+608.5C450.118+606.374+590.351+603.228+701.344+601.531C755.887+600.698+828.063+597.532+828.5+596.906C868.005+573.616+894.594+530.772+894.594+481.594C894.594+430.886+866.399+386.771+824.844+364.031C818.501+355.907+825.371+318.04+771.382+286.009C719.201+255.049+680.361+281.498+670.688+283.719C650.444+235.451+602.744+201.562+547.125+201.562Z" opacity="1" fill="#ffffff"/>
<path d="M541.368+286.032C512.464+286.032+486.623+297.384+469.126+315.262C452.292+302.137+430.22+294.109+405.967+294.109C353.272+294.109+310.549+331.73+310.549+378.134C310.549+378.73+310.647+379.306+310.661+379.899C271.905+390.581+243.784+422.431+243.784+460.082C243.784+496.709+270.439+527.783+307.566+539.284C309.109+540.075+324.999+541.998+465.519+541.323C472.401+541.29+572.162+538.016+651.234+536.951C690.091+536.428+741.509+534.443+741.821+534.05C769.964+519.439+788.906+492.561+788.906+461.709C788.906+429.898+768.82+402.222+739.216+387.956C734.697+382.86+739.591+359.104+701.13+339.009C663.955+319.587+636.286+336.179+629.394+337.572C614.973+307.291+580.992+286.032+541.368+286.032Z" opacity="1" fill="#dd5f5c"/>
</g>
<g opacity="0">
<path d="M542.7+480.513C542.7+458.722+557.522+441.058+575.806+441.058C594.089+441.058+608.911+458.722+608.911+480.513C608.911+502.303+594.089+519.968+575.806+519.968C557.522+519.968+542.7+502.303+542.7+480.513Z" opacity="1" fill="#b01511"/>
<path d="M666.439+480.513C666.439+458.722+681.261+441.058+699.545+441.058C717.829+441.058+732.651+458.722+732.651+480.513C732.651+502.303+717.829+519.968+699.545+519.968C681.261+519.968+666.439+502.303+666.439+480.513Z" opacity="1" fill="#b01511"/>
</g>
<g opacity="1">
<path d="M547.908+754.547C555.1+754.547+559.508+750.139+559.508+741.787C559.508+741.091+559.508+740.627+559.508+739.931C557.188+709.539+538.164+683.091+504.292+683.091C466.476+683.091+445.596+711.163+445.596+751.299C445.596+791.435+467.636+818.347+505.684+818.347C535.844+818.347+549.3+803.035+556.724+787.723C557.652+786.331+557.884+784.939+557.884+783.547C557.884+779.371+554.636+776.587+550.692+775.427C549.068+774.963+547.444+774.499+545.82+774.499C542.572+774.499+539.556+776.123+537.468+780.299C531.9+792.595+522.62+800.947+505.916+800.947C480.86+800.947+466.708+783.083+466.244+754.547L547.908+754.547ZM466.94+737.611C469.956+714.875+482.02+700.027+504.292+700.027C525.636+700.027+535.612+716.963+538.396+733.435C538.396+733.899+538.396+734.363+538.396+734.595C538.396+736.683+537.468+737.611+534.916+737.611L466.94+737.611Z" opacity="1" fill="#ffffff"/>
<path d="M605.908+769.163L623.54+752.227L666.692+812.547C668.548+815.099+671.564+816.259+674.58+816.259C676.9+816.259+678.988+815.795+680.844+814.635C683.86+812.779+686.18+809.299+686.18+805.819C686.18+803.963+685.716+802.339+684.556+800.715L638.388+739.235L677.596+702.579C679.684+700.491+680.612+698.403+680.612+696.083C680.612+693.531+679.22+690.747+677.132+688.427C675.276+686.107+672.492+684.947+669.476+684.947C667.156+684.947+664.604+685.875+662.516+687.963L605.908+744.339L605.908+641.331C605.908+635.299+601.732+632.747+595.7+632.747C589.204+632.747+585.028+635.763+585.028+641.795L585.028+806.979C585.028+813.243+588.972+816.259+595.468+816.259C601.732+816.259+605.908+813.243+605.908+806.979L605.908+769.163Z" opacity="1" fill="#ffffff"/>
<path d="M759.028+758.491C780.14+762.667+786.172+768.931+786.172+780.299C786.172+792.131+774.108+800.251+755.548+800.251C737.22+800.251+727.708+793.523+723.532+780.067C722.14+775.659+717.964+773.803+713.556+773.803C712.628+773.803+711.468+774.035+710.308+774.267C705.9+775.195+701.956+778.443+701.956+783.083C701.956+784.011+702.188+784.939+702.42+786.099C708.452+806.747+725.852+818.579+755.548+818.579C788.028+818.579+807.052+802.107+807.052+779.835C807.052+755.475+794.988+746.659+764.828+740.395L750.444+737.379C730.956+733.203+726.548+728.563+726.548+717.891C726.548+708.147+735.364+700.491+754.156+700.491C767.38+700.491+777.588+705.827+780.604+716.267C781.764+720.675+785.94+722.531+790.116+722.531C791.276+722.531+792.668+722.299+793.828+722.067C798.004+720.907+801.948+717.891+801.948+713.483C801.948+712.555+801.716+711.627+801.484+710.699C795.684+693.763+779.212+682.859+753.46+682.859C723.532+682.859+705.436+697.243+705.436+718.355C705.436+740.395+717.268+750.371+745.804+755.939L759.028+758.491Z" opacity="1" fill="#ffffff"/>
</g>
<path d="M1231.69+730.03L1235.17+730.03C1235.49+730.03+1235.75+730.29+1235.75+730.61L1235.75+730.61C1235.75+730.93+1235.49+731.19+1235.17+731.19L1231.69+731.19C1231.37+731.19+1231.11+730.93+1231.11+730.61L1231.11+730.61C1231.11+730.29+1231.37+730.03+1231.69+730.03Z" opacity="1" fill="#5b1817"/>
</g>
<g id="Layer 2 copy copy copy_2" vectornator:layerName="Layer 2 copy copy copy" visibility="hidden">
<path d="M-33.7248-29.6927L1073.93-29.6927C1074.26-29.6927+1074.53-29.4257+1074.53-29.0963L1074.53+1063.48C1074.53+1063.81+1074.26+1064.08+1073.93+1064.08L-33.7248+1064.08C-34.0542+1064.08-34.3213+1063.81-34.3213+1063.48L-34.3213-29.0963C-34.3213-29.4257-34.0542-29.6927-33.7248-29.6927Z" opacity="1" fill="#dd5f5c"/>
<g opacity="1">
<path d="M544.727+201.562C504.154+201.562+467.882+219.659+443.321+248.156C419.691+227.234+388.708+214.438+354.665+214.438C280.696+214.438+220.727+274.407+220.727+348.375C220.727+349.325+220.864+350.242+220.884+351.188C166.482+368.216+127.009+418.985+127.009+479C127.009+537.384+164.424+586.916+216.54+605.25C218.705+606.51+221.663+607.848+225.352+608C244.171+616.533+279.196+637.908+279.196+679.531C279.196+736.351+279.196+821.656+279.196+821.656L380.821+822.438L380.821+679.062C380.821+679.063+382.688+620.988+438.259+608.5C447.72+606.374+587.953+603.228+698.946+601.531C753.489+600.698+825.665+597.532+826.102+596.906C865.607+573.616+892.196+530.772+892.196+481.594C892.196+430.886+864.001+386.771+822.446+364.031C816.104+355.907+822.973+318.04+768.985+286.009C716.803+255.049+677.963+281.498+668.29+283.719C648.047+235.451+600.347+201.562+544.727+201.562Z" opacity="1" fill="#ffffff"/>
<path d="M534.625+286.032C505.721+286.032+479.881+297.384+462.383+315.262C445.549+302.137+423.477+294.109+399.224+294.109C346.529+294.109+303.807+331.73+303.807+378.134C303.807+378.73+303.904+379.306+303.918+379.899C265.162+390.581+237.041+422.431+237.041+460.082C237.041+496.709+263.696+527.783+300.824+539.284C302.366+540.075+318.256+541.998+458.777+541.323C465.658+541.29+565.42+538.016+644.491+536.951C683.348+536.428+734.766+534.443+735.078+534.05C763.221+519.439+782.163+492.561+782.163+461.709C782.163+429.898+762.077+402.222+732.473+387.956C727.955+382.86+732.849+359.104+694.387+339.009C657.213+319.587+629.543+336.179+622.652+337.572C608.23+307.291+574.249+286.032+534.625+286.032Z" opacity="1" fill="#dd5f5c"/>
</g>
<g opacity="0">
<path d="M542.7+480.513C542.7+458.722+557.522+441.058+575.806+441.058C594.089+441.058+608.911+458.722+608.911+480.513C608.911+502.303+594.089+519.968+575.806+519.968C557.522+519.968+542.7+502.303+542.7+480.513Z" opacity="1" fill="#b01511"/>
<path d="M666.439+480.513C666.439+458.722+681.261+441.058+699.545+441.058C717.829+441.058+732.651+458.722+732.651+480.513C732.651+502.303+717.829+519.968+699.545+519.968C681.261+519.968+666.439+502.303+666.439+480.513Z" opacity="1" fill="#b01511"/>
</g>
<g opacity="1">
<path d="M451.056+684.801C456.817+684.801+461.438+682.63+463.414+678.956C463.775+678.288+463.97+677.62+463.97+676.98C463.97+675.115+462.551+674.002+460.797+674.002C459.74+674.002+459.016+674.308+458.153+675.199C455.955+677.787+454.006+678.789+451.028+678.789C446.909+678.789+444.237+675.895+444.237+671.469L444.237+671.108L461.271+671.108C463.525+671.108+464.805+669.827+464.805+667.573C464.805+659.474+459.128+653.685+450.667+653.685C441.844+653.685+436.25+659.78+436.25+669.382C436.25+679.04+441.732+684.801+451.056+684.801ZM444.321+666.126C444.599+662.313+447.188+659.697+450.75+659.697C454.313+659.697+456.817+662.229+456.984+666.126L444.321+666.126Z" opacity="1" fill="#ffffff"/>
<path d="M489.872+684.801C497.748+684.801+503.064+680.96+503.064+675.032C503.064+670.579+500.448+668.241+494.102+666.905L489.176+665.847C486.198+665.207+485.029+664.177+485.029+662.619C485.029+660.698+486.95+659.39+489.705+659.39C492.627+659.39+494.242+660.782+495.661+662.591C496.385+663.454+497.554+663.843+498.611+663.843C500.699+663.843+501.728+662.702+501.728+661.06C501.728+660.671+501.645+660.281+501.534+659.863C500.559+656.496+496.023+653.685+489.844+653.685C482.107+653.685+477.181+657.359+477.181+663.064C477.181+667.489+480.131+670.467+485.975+671.72L490.985+672.778C493.908+673.418+494.937+674.28+494.937+675.895C494.937+677.871+493.017+679.095+490.067+679.095C486.977+679.095+485.141+678.149+483.554+676.062C482.441+674.809+481.328+674.225+480.019+674.225C478.127+674.225+476.735+675.477+476.735+677.342C476.735+677.787+476.847+678.316+477.041+678.845C478.461+682.352+483.025+684.801+489.872+684.801Z" opacity="1" fill="#ffffff"/>
<path d="M527.964+684.801C535.841+684.801+541.156+680.96+541.156+675.032C541.156+670.579+538.54+668.241+532.195+666.905L527.268+665.847C524.29+665.207+523.121+664.177+523.121+662.619C523.121+660.698+525.042+659.39+527.797+659.39C530.719+659.39+532.334+660.782+533.753+662.591C534.477+663.454+535.646+663.843+536.703+663.843C538.791+663.843+539.821+662.702+539.821+661.06C539.821+660.671+539.737+660.281+539.626+659.863C538.652+656.496+534.115+653.685+527.936+653.685C520.199+653.685+515.273+657.359+515.273+663.064C515.273+667.489+518.223+670.467+524.068+671.72L529.077+672.778C532+673.418+533.03+674.28+533.03+675.895C533.03+677.871+531.109+679.095+528.159+679.095C525.07+679.095+523.233+678.149+521.646+676.062C520.533+674.809+519.42+674.225+518.112+674.225C516.219+674.225+514.827+675.477+514.827+677.342C514.827+677.787+514.939+678.316+515.134+678.845C516.553+682.352+521.117+684.801+527.964+684.801Z" opacity="1" fill="#ffffff"/>
<path d="M567.615+684.801C573.376+684.801+577.996+682.63+579.972+678.956C580.334+678.288+580.529+677.62+580.529+676.98C580.529+675.115+579.109+674.002+577.356+674.002C576.298+674.002+575.575+674.308+574.712+675.199C572.513+677.787+570.565+678.789+567.587+678.789C563.468+678.789+560.796+675.895+560.796+671.469L560.796+671.108L577.829+671.108C580.084+671.108+581.364+669.827+581.364+667.573C581.364+659.474+575.686+653.685+567.225+653.685C558.402+653.685+552.808+659.78+552.808+669.382C552.808+679.04+558.291+684.801+567.615+684.801ZM560.879+666.126C561.158+662.313+563.746+659.697+567.309+659.697C570.871+659.697+573.376+662.229+573.543+666.126L560.879+666.126Z" opacity="1" fill="#ffffff"/>
<path d="M598.331+684.745C600.725+684.745+602.395+683.298+602.395+680.515L602.395+667.044C602.395+663.176+604.705+660.504+608.351+660.504C611.997+660.504+613.834+662.73+613.834+666.627L613.834+680.515C613.834+683.298+615.504+684.745+617.897+684.745C620.263+684.745+621.961+683.298+621.961+680.515L621.961+664.929C621.961+657.943+618.231+653.768+611.607+653.768C607.015+653.768+604.009+655.8+602.423+659.502L602.256+659.502L602.256+657.832C602.256+655.271+600.642+653.713+598.192+653.713C595.743+653.713+594.268+655.271+594.268+657.804L594.268+680.515C594.268+683.298+595.966+684.745+598.331+684.745Z" opacity="1" fill="#ffffff"/>
<path d="M638.01+676.535C638.01+681.795+640.765+684.495+646.193+684.495L646.471+684.495C649.894+684.495+652.232+683.27+652.232+680.877C652.232+678.984+651.147+678.149+649.143+677.926L648.614+677.871C646.861+677.732+646.137+676.841+646.137+674.726L646.137+660.448L649.004+660.448C650.924+660.448+652.121+659.251+652.121+657.386C652.121+655.522+650.924+654.325+649.004+654.325L646.137+654.325L646.137+651.013C646.137+648.397+644.606+646.782+642.074+646.782C639.541+646.782+638.01+648.397+638.01+651.013L638.01+654.325L636.451+654.325C634.531+654.325+633.306+655.494+633.306+657.386C633.306+659.279+634.531+660.448+636.451+660.448L638.01+660.448L638.01+676.535Z" opacity="1" fill="#ffffff"/>
<path d="M669.033+650.623C671.482+650.623+673.375+648.759+673.375+646.421C673.375+644.055+671.482+642.218+669.033+642.218C666.584+642.218+664.691+644.055+664.691+646.421C664.691+648.759+666.584+650.623+669.033+650.623ZM669.033+684.745C671.538+684.745+673.096+683.159+673.096+680.515L673.096+657.971C673.096+655.327+671.538+653.713+669.033+653.713C666.5+653.713+664.969+655.327+664.969+657.971L664.969+680.515C664.969+683.159+666.5+684.745+669.033+684.745Z" opacity="1" fill="#ffffff"/>
<path d="M696.048+684.634C699.777+684.634+703.507+682.769+705.177+679.596L705.344+679.596L705.344+681.127C705.511+683.521+707.041+684.745+709.24+684.745C711.55+684.745+713.192+683.354+713.192+680.654L713.192+663.649C713.192+657.637+708.21+653.685+700.557+653.685C694.378+653.685+689.591+655.884+688.199+659.446C687.921+660.058+687.782+660.643+687.782+661.283C687.782+663.12+689.201+664.4+691.177+664.4C692.485+664.4+693.515+663.899+694.406+662.897C696.215+660.559+697.718+659.752+700.195+659.752C703.256+659.752+705.205+661.366+705.205+664.15L705.205+666.126L697.69+666.571C690.231+667.016+686.056+670.161+686.056+675.589C686.056+680.96+690.37+684.634+696.048+684.634ZM698.72+678.761C695.992+678.761+694.155+677.37+694.155+675.143C694.155+673.028+695.881+671.664+698.915+671.442L705.205+671.052L705.205+673.223C705.205+676.451+702.282+678.761+698.72+678.761Z" opacity="1" fill="#ffffff"/>
<path d="M731.412+684.745C733.806+684.745+735.476+683.298+735.476+680.515L735.476+647.645C735.476+644.862+733.806+643.387+731.412+643.387C729.047+643.387+727.349+644.862+727.349+647.645L727.349+680.515C727.349+683.298+729.047+684.745+731.412+684.745Z" opacity="1" fill="#ffffff"/>
<path d="M441.593+752.767C443.987+752.767+445.657+751.32+445.657+748.536L445.657+742.497L448.245+740.103L455.899+750.234C457.179+752.155+458.153+752.767+459.879+752.767C462.161+752.767+463.748+751.264+463.748+749.093C463.748+748.035+463.497+747.312+462.607+746.115L454.285+735.511L461.883+728.33C463.052+727.245+463.414+726.493+463.414+725.269C463.414+723.265+461.883+721.734+459.795+721.734C458.571+721.734+457.652+722.207+456.567+723.348L445.768+734.175L445.657+734.175L445.657+715.667C445.657+712.884+443.987+711.408+441.593+711.408C439.228+711.408+437.53+712.884+437.53+715.667L437.53+748.536C437.53+751.32+439.228+752.767+441.593+752.767Z" opacity="1" fill="#ffffff"/>
<path d="M480.799+752.767C483.192+752.767+484.862+751.32+484.862+748.536L484.862+735.066C484.862+731.197+487.172+728.525+490.818+728.525C494.464+728.525+496.301+730.752+496.301+734.648L496.301+748.536C496.301+751.32+497.971+752.767+500.365+752.767C502.73+752.767+504.428+751.32+504.428+748.536L504.428+732.95C504.428+725.965+500.699+721.79+494.075+721.79C489.482+721.79+486.476+723.822+484.89+727.523L484.723+727.523L484.723+725.853C484.723+723.293+483.109+721.734+480.66+721.734C478.21+721.734+476.735+723.293+476.735+725.825L476.735+748.536C476.735+751.32+478.433+752.767+480.799+752.767Z" opacity="1" fill="#ffffff"/>
<path d="M532+752.822C541.017+752.822+546.779+747.061+546.779+737.237C546.779+727.551+540.934+721.706+532+721.706C523.066+721.706+517.221+727.579+517.221+737.237C517.221+747.033+522.982+752.822+532+752.822ZM532+746.616C527.992+746.616+525.459+743.248+525.459+737.264C525.459+731.336+528.048+727.913+532+727.913C535.952+727.913+538.512+731.336+538.512+737.264C538.512+743.248+535.98+746.616+532+746.616Z" opacity="1" fill="#ffffff"/>
<path d="M569.424+752.767C572.318+752.767+573.933+751.459+574.629+748.509L579.137+731.086L579.304+731.086L583.841+748.453C584.537+751.487+586.123+752.767+589.101+752.767C591.912+752.767+593.471+751.431+594.306+748.481L600.317+727.662C600.624+726.605+600.763+725.937+600.763+725.185C600.763+723.154+599.176+721.734+596.922+721.734C594.918+721.734+593.61+722.959+593.165+725.13L588.712+744.473L588.545+744.473L583.897+725.464C583.368+723.042+581.781+721.734+579.36+721.734C576.883+721.734+575.296+723.042+574.768+725.464L570.148+744.473L569.981+744.473L565.555+725.185C565.082+722.959+563.774+721.734+561.742+721.734C559.46+721.734+557.818+723.181+557.818+725.213C557.818+725.992+557.957+726.66+558.263+727.718L564.275+748.509C565.138+751.459+566.613+752.767+569.424+752.767Z" opacity="1" fill="#ffffff"/>
<path d="M617.424+752.767C619.818+752.767+621.488+751.32+621.488+748.536L621.488+715.667C621.488+712.884+619.818+711.408+617.424+711.408C615.059+711.408+613.361+712.884+613.361+715.667L613.361+748.536C613.361+751.32+615.059+752.767+617.424+752.767Z" opacity="1" fill="#ffffff"/>
<path d="M649.421+752.822C655.182+752.822+659.803+750.652+661.779+746.978C662.14+746.31+662.335+745.642+662.335+745.002C662.335+743.137+660.916+742.024+659.162+742.024C658.105+742.024+657.381+742.33+656.518+743.22C654.32+745.809+652.371+746.811+649.393+746.811C645.274+746.811+642.602+743.916+642.602+739.491L642.602+739.129L659.636+739.129C661.89+739.129+663.17+737.849+663.17+735.594C663.17+727.495+657.492+721.706+649.032+721.706C640.209+721.706+634.615+727.801+634.615+737.404C634.615+747.061+640.097+752.822+649.421+752.822ZM642.686+734.147C642.964+730.334+645.553+727.718+649.115+727.718C652.678+727.718+655.182+730.251+655.349+734.147L642.686+734.147Z" opacity="1" fill="#ffffff"/>
<path d="M687.151+752.655C691.744+752.655+695.028+750.262+696.336+746.922L696.475+746.922L696.475+748.648C696.475+751.375+698.229+752.767+700.567+752.767C702.932+752.767+704.602+751.347+704.602+748.648L704.602+715.667C704.602+712.884+702.932+711.408+700.539+711.408C698.173+711.408+696.475+712.884+696.475+715.667L696.475+727.467L696.308+727.467C694.861+724.155+691.521+721.873+687.207+721.873C679.72+721.873+674.989+727.746+674.989+737.209C674.989+746.755+679.693+752.655+687.151+752.655ZM689.907+746.115C685.816+746.115+683.311+742.747+683.311+737.264C683.311+731.809+685.816+728.386+689.907+728.386C693.943+728.386+696.531+731.837+696.531+737.264C696.531+742.719+693.943+746.115+689.907+746.115Z" opacity="1" fill="#ffffff"/>
<path d="M732.09+763.399C741.692+763.454+747.314+758.779+747.314+751.013L747.314+725.853C747.314+723.098+745.617+721.734+743.279+721.734C740.941+721.734+739.187+723.098+739.187+725.853L739.187+727.495L739.02+727.495C737.462+724.128+734.206+721.873+729.919+721.873C722.238+721.873+717.673+727.412+717.673+736.763C717.673+745.864+722.349+751.542+729.78+751.542C734.094+751.542+737.573+749.399+738.965+746.198L739.132+746.198L739.132+750.958C739.132+754.687+736.516+757.136+732.062+757.109C729.363+757.081+727.248+755.94+725.049+753.852C724.13+753.017+723.295+752.683+722.238+752.683C720.206+752.683+718.926+753.964+718.926+755.661C718.926+756.413+719.093+757.164+719.538+757.916C721.458+761.061+725.995+763.371+732.09+763.399ZM732.536+745.503C728.5+745.503+725.995+742.302+725.995+736.847C725.995+731.447+728.528+728.052+732.536+728.052C736.599+728.052+739.215+731.503+739.215+736.875C739.215+742.274+736.599+745.503+732.536+745.503Z" opacity="1" fill="#ffffff"/>
<path d="M775.025+752.822C780.786+752.822+785.407+750.652+787.383+746.978C787.744+746.31+787.939+745.642+787.939+745.002C787.939+743.137+786.52+742.024+784.766+742.024C783.709+742.024+782.985+742.33+782.122+743.22C779.924+745.809+777.975+746.811+774.997+746.811C770.878+746.811+768.206+743.916+768.206+739.491L768.206+739.129L785.24+739.129C787.494+739.129+788.774+737.849+788.774+735.594C788.774+727.495+783.096+721.706+774.636+721.706C765.813+721.706+760.219+727.801+760.219+737.404C760.219+747.061+765.701+752.822+775.025+752.822ZM768.29+734.147C768.568+730.334+771.157+727.718+774.719+727.718C778.282+727.718+780.786+730.251+780.953+734.147L768.29+734.147Z" opacity="1" fill="#ffffff"/>
<path d="M449.498+820.844C457.374+820.844+462.69+817.003+462.69+811.075C462.69+806.622+460.074+804.284+453.728+802.948L448.802+801.89C445.824+801.25+444.655+800.22+444.655+798.662C444.655+796.741+446.575+795.433+449.331+795.433C452.253+795.433+453.867+796.825+455.287+798.634C456.01+799.497+457.179+799.886+458.237+799.886C460.324+799.886+461.354+798.745+461.354+797.103C461.354+796.714+461.271+796.324+461.159+795.906C460.185+792.539+455.649+789.728+449.47+789.728C441.732+789.728+436.806+793.402+436.806+799.107C436.806+803.532+439.756+806.51+445.601+807.763L450.611+808.821C453.533+809.461+454.563+810.323+454.563+811.938C454.563+813.914+452.643+815.138+449.692+815.138C446.603+815.138+444.766+814.192+443.18+812.105C442.066+810.852+440.953+810.268+439.645+810.268C437.753+810.268+436.361+811.52+436.361+813.385C436.361+813.83+436.472+814.359+436.667+814.888C438.086+818.395+442.651+820.844+449.498+820.844Z" opacity="1" fill="#ffffff"/>
<path d="M480.353+831.253C486.894+831.253+490.345+828.414+493.128+820.705L502.285+795.823C502.563+795.044+502.73+794.097+502.73+793.429C502.73+791.286+501.116+789.756+498.778+789.756C496.691+789.756+495.522+790.73+494.854+792.984L488.369+813.691L488.23+813.691L481.745+793.04C481.077+790.674+479.964+789.756+477.821+789.756C475.427+789.756+473.618+791.342+473.618+793.541C473.618+794.209+473.785+795.099+474.091+795.934L483.61+821.039L483.192+822.096C482.218+824.184+480.687+824.796+479.268+824.796C478.711+824.796+478.405+824.768+477.849+824.768C476.012+824.768+474.871+825.798+474.871+827.44C474.871+829.889+476.791+831.253+480.353+831.253Z" opacity="1" fill="#ffffff"/>
<path d="M526.99+820.844C534.866+820.844+540.182+817.003+540.182+811.075C540.182+806.622+537.566+804.284+531.22+802.948L526.294+801.89C523.316+801.25+522.147+800.22+522.147+798.662C522.147+796.741+524.068+795.433+526.823+795.433C529.745+795.433+531.36+796.825+532.779+798.634C533.503+799.497+534.672+799.886+535.729+799.886C537.817+799.886+538.846+798.745+538.846+797.103C538.846+796.714+538.763+796.324+538.652+795.906C537.677+792.539+533.141+789.728+526.962+789.728C519.225+789.728+514.299+793.402+514.299+799.107C514.299+803.532+517.249+806.51+523.094+807.763L528.103+808.821C531.026+809.461+532.055+810.323+532.055+811.938C532.055+813.914+530.135+815.138+527.185+815.138C524.095+815.138+522.259+814.192+520.672+812.105C519.559+810.852+518.446+810.268+517.137+810.268C515.245+810.268+513.853+811.52+513.853+813.385C513.853+813.83+513.965+814.359+514.159+814.888C515.579+818.395+520.143+820.844+526.99+820.844Z" opacity="1" fill="#ffffff"/>
<path d="M555.09+812.578C555.09+817.838+557.846+820.538+563.273+820.538L563.551+820.538C566.975+820.538+569.313+819.313+569.313+816.92C569.313+815.027+568.227+814.192+566.223+813.969L565.694+813.914C563.941+813.775+563.217+812.884+563.217+810.769L563.217+796.491L566.084+796.491C568.004+796.491+569.201+795.294+569.201+793.429C569.201+791.565+568.004+790.368+566.084+790.368L563.217+790.368L563.217+787.056C563.217+784.44+561.687+782.825+559.154+782.825C556.621+782.825+555.09+784.44+555.09+787.056L555.09+790.368L553.532+790.368C551.611+790.368+550.387+791.537+550.387+793.429C550.387+795.322+551.611+796.491+553.532+796.491L555.09+796.491L555.09+812.578Z" opacity="1" fill="#ffffff"/>
<path d="M595.214+820.844C600.976+820.844+605.596+818.673+607.572+814.999C607.934+814.331+608.128+813.663+608.128+813.023C608.128+811.158+606.709+810.045+604.956+810.045C603.898+810.045+603.174+810.351+602.311+811.242C600.113+813.83+598.164+814.832+595.186+814.832C591.067+814.832+588.395+811.938+588.395+807.512L588.395+807.151L605.429+807.151C607.683+807.151+608.963+805.87+608.963+803.616C608.963+795.517+603.286+789.728+594.825+789.728C586.002+789.728+580.408+795.823+580.408+805.425C580.408+815.083+585.891+820.844+595.214+820.844ZM588.479+802.169C588.757+798.356+591.346+795.739+594.908+795.739C598.471+795.739+600.976+798.272+601.143+802.169L588.479+802.169Z" opacity="1" fill="#ffffff"/>
<path d="M625.931+820.788C628.324+820.788+629.994+819.313+629.994+816.558L629.994+802.197C629.994+798.857+632.082+796.519+635.171+796.519C638.177+796.519+639.986+798.411+639.986+801.612L639.986+816.558C639.986+819.313+641.489+820.788+643.883+820.788C646.304+820.788+647.807+819.313+647.807+816.558L647.807+802.085C647.807+798.773+649.839+796.519+652.928+796.519C656.073+796.519+657.799+798.411+657.799+801.863L657.799+816.558C657.799+819.313+659.441+820.788+661.834+820.788C664.256+820.788+665.926+819.313+665.926+816.558L665.926+799.831C665.926+793.819+662.001+789.811+656.157+789.811C651.787+789.811+648.224+792.177+646.888+795.934L646.721+795.934C645.72+792.038+642.714+789.811+638.4+789.811C634.336+789.811+631.136+792.177+629.883+795.767L629.716+795.767L629.716+793.903C629.716+791.175+628.102+789.756+625.792+789.756C623.482+789.756+621.867+791.175+621.867+793.903L621.867+816.558C621.867+819.313+623.51+820.788+625.931+820.788Z" opacity="1" fill="#ffffff"/>
<path d="M691.966+820.844C699.843+820.844+705.159+817.003+705.159+811.075C705.159+806.622+702.543+804.284+696.197+802.948L691.271+801.89C688.293+801.25+687.124+800.22+687.124+798.662C687.124+796.741+689.044+795.433+691.799+795.433C694.722+795.433+696.336+796.825+697.755+798.634C698.479+799.497+699.648+799.886+700.706+799.886C702.793+799.886+703.823+798.745+703.823+797.103C703.823+796.714+703.739+796.324+703.628+795.906C702.654+792.539+698.117+789.728+691.939+789.728C684.201+789.728+679.275+793.402+679.275+799.107C679.275+803.532+682.225+806.51+688.07+807.763L693.08+808.821C696.002+809.461+697.032+810.323+697.032+811.938C697.032+813.914+695.111+815.138+692.161+815.138C689.072+815.138+687.235+814.192+685.649+812.105C684.535+810.852+683.422+810.268+682.114+810.268C680.221+810.268+678.83+811.52+678.83+813.385C678.83+813.83+678.941+814.359+679.136+814.888C680.555+818.395+685.12+820.844+691.966+820.844Z" opacity="1" fill="#ffffff"/>
</g>
<path d="M1231.69+730.03L1235.17+730.03C1235.49+730.03+1235.75+730.29+1235.75+730.61L1235.75+730.61C1235.75+730.93+1235.49+731.19+1235.17+731.19L1231.69+731.19C1231.37+731.19+1231.11+730.93+1231.11+730.61L1231.11+730.61C1231.11+730.29+1231.37+730.03+1231.69+730.03Z" opacity="1" fill="#5b1817"/>
</g>
</svg>
